<svg width="40" height="40" viewBox="0 0 40 40" fill="none" xmlns="http://www.w3.org/2000/svg">
    <rect width="40" height="40" rx="10" fill="#9FC0EE" fill-opacity="0.16" />
    <g clip-path="url(#clip0_6184_8296)">
        <mask id="mask0_6184_8296" style="mask-type:alpha" maskUnits="userSpaceOnUse" x="8" y="8" width="24"
            height="24">
            <rect x="8" y="8" width="24" height="24" fill="#D9D9D9" />
        </mask>
        <g mask="url(#mask0_6184_8296)">
            <path
                d="M13 29C12.45 29 11.9792 28.8042 11.5875 28.4125C11.1958 28.0208 11 27.55 11 27V13C11 12.45 11.1958 11.9792 11.5875 11.5875C11.9792 11.1958 12.45 11 13 11H19C19.2833 11 19.5208 11.0958 19.7125 11.2875C19.9042 11.4792 20 11.7167 20 12C20 12.2833 19.9042 12.5208 19.7125 12.7125C19.5208 12.9042 19.2833 13 19 13H13V27H19C19.2833 27 19.5208 27.0958 19.7125 27.2875C19.9042 27.4792 20 27.7167 20 28C20 28.2833 19.9042 28.5208 19.7125 28.7125C19.5208 28.9042 19.2833 29 19 29H13ZM25.175 21H18C17.7167 21 17.4792 20.9042 17.2875 20.7125C17.0958 20.5208 17 20.2833 17 20C17 19.7167 17.0958 19.4792 17.2875 19.2875C17.4792 19.0958 17.7167 19 18 19H25.175L23.3 17.125C23.1167 16.9417 23.025 16.7167 23.025 16.45C23.025 16.1833 23.1167 15.95 23.3 15.75C23.4833 15.55 23.7167 15.4458 24 15.4375C24.2833 15.4292 24.525 15.525 24.725 15.725L28.3 19.3C28.5 19.5 28.6 19.7333 28.6 20C28.6 20.2667 28.5 20.5 28.3 20.7L24.725 24.275C24.525 24.475 24.2875 24.5708 24.0125 24.5625C23.7375 24.5542 23.5 24.45 23.3 24.25C23.1167 24.05 23.0292 23.8125 23.0375 23.5375C23.0458 23.2625 23.1417 23.0333 23.325 22.85L25.175 21Z"
                fill="#00409E" />
        </g>
    </g>
    <defs>
        <clipPath id="clip0_6184_8296">
            <rect width="24" height="24" fill="white" transform="translate(8 8)" />
        </clipPath>
    </defs>
</svg>