<svg width="40" height="40" viewBox="0 0 40 40" fill="none" xmlns="http://www.w3.org/2000/svg">
    <rect width="40" height="40" rx="10" fill="#9FC0EE" fill-opacity="0.16" />
    <g clip-path="url(#clip0_6184_8264)">
        <mask id="mask0_6184_8264" style="mask-type:alpha" maskUnits="userSpaceOnUse" x="8" y="8" width="24"
            height="24">
            <rect x="8" y="8" width="24" height="24" fill="#D9D9D9" />
        </mask>
        <g mask="url(#mask0_6184_8264)">
            <path
                d="M16.85 24.825L20 22.925L23.15 24.85L22.325 21.25L25.1 18.85L21.45 18.525L20 15.125L18.55 18.5L14.9 18.825L17.675 21.25L16.85 24.825ZM20 25.275L15.85 27.775C15.6667 27.8917 15.475 27.9417 15.275 27.925C15.075 27.9083 14.9 27.8417 14.75 27.725C14.6 27.6083 14.4833 27.4625 14.4 27.2875C14.3167 27.1125 14.3 26.9167 14.35 26.7L15.45 21.975L11.775 18.8C11.6083 18.65 11.5042 18.4792 11.4625 18.2875C11.4208 18.0958 11.4333 17.9083 11.5 17.725C11.5667 17.5417 11.6667 17.3917 11.8 17.275C11.9333 17.1583 12.1167 17.0833 12.35 17.05L17.2 16.625L19.075 12.175C19.1583 11.975 19.2875 11.825 19.4625 11.725C19.6375 11.625 19.8167 11.575 20 11.575C20.1833 11.575 20.3625 11.625 20.5375 11.725C20.7125 11.825 20.8417 11.975 20.925 12.175L22.8 16.625L27.65 17.05C27.8833 17.0833 28.0667 17.1583 28.2 17.275C28.3333 17.3917 28.4333 17.5417 28.5 17.725C28.5667 17.9083 28.5792 18.0958 28.5375 18.2875C28.4958 18.4792 28.3917 18.65 28.225 18.8L24.55 21.975L25.65 26.7C25.7 26.9167 25.6833 27.1125 25.6 27.2875C25.5167 27.4625 25.4 27.6083 25.25 27.725C25.1 27.8417 24.925 27.9083 24.725 27.925C24.525 27.9417 24.3333 27.8917 24.15 27.775L20 25.275Z"
                fill="#00409E" />
        </g>
    </g>
    <defs>
        <clipPath id="clip0_6184_8264">
            <rect width="24" height="24" fill="white" transform="translate(8 8)" />
        </clipPath>
    </defs>
</svg>